<?xml version="1.0" encoding="UTF-8"?>
<svg xmlns="http://www.w3.org/2000/svg" onmouseup="{ if(window.parent.document.onmouseup) window.parent.document.onmouseup(arguments[0]);}" viewBox="0 0 36 36" height="128" width="128" xmlns:xlink="http://www.w3.org/1999/xlink">
  <defs>
    <circle id="comment-b" cx="18" cy="18" r="16"/>
    <filter id="comment-a" width="118.8%" height="118.8%" x="-9.4%" y="-9.4%" filterUnits="objectBoundingBox">
      <feOffset in="SourceAlpha" result="shadowOffsetOuter1"/>
      <feGaussianBlur in="shadowOffsetOuter1" result="shadowBlurOuter1" stdDeviation="1"/>
      <feComposite in="shadowBlurOuter1" in2="SourceAlpha" operator="out" result="shadowBlurOuter1"/>
      <feColorMatrix in="shadowBlurOuter1" values="0 0 0 0 0   0 0 0 0 0   0 0 0 0 0  0 0 0 0.5 0"/>
    </filter>
  </defs>
  <g fill="none" fill-rule="evenodd">
    <rect width="128" height="128" fill="#03FF00" opacity="0"/>
    <use xmlns:xlink="http://www.w3.org/1999/xlink" fill="#000" filter="url(#comment-a)" xlink:href="#comment-b"/>
    <circle cx="18" cy="18" r="15" fill="#000" stroke="#FFF" stroke-linejoin="square" stroke-width="2"/>
    <path fill="#FFF" fill-rule="nonzero" d="M12,12 C10.8954305,12 10,12.8954305 10,14 L10,21 C10,22.1045695 10.8954305,23 12,23 L13,23 L13,27.4 C12.9998188,27.5012544 13.0607314,27.5926192 13.1542684,27.6313922 C13.2478053,27.6701651 13.3554929,27.6486884 13.427,27.577 L18,23 L24,23 C25.1045695,23 26,22.1045695 26,21 L26,14 C26,12.8954305 25.1045695,12 24,12 L12,12 Z"/>
  </g>
</svg>